<?xml version="1.0" encoding="UTF-8"?><svg id="Layer_2" xmlns="http://www.w3.org/2000/svg" viewBox="0 0 134.61 134.61"><defs><style>.cls-1{fill:#fff;}.cls-2{fill:none;stroke:#fff;stroke-miterlimit:10;}</style></defs><g id="Layer_1-2"><g><g><rect class="cls-2" x="26.19" y="38.6" width="82.24" height="57.42"/><path class="cls-2" d="M26.19,49.3v-10.67s.01-.02,.02-.02H108.4s.02,.01,.02,.02v10.67l-41.1,32.71s-.02,0-.03,0L26.19,49.3Z"/><path class="cls-2" d="M81.84,70.45l-14.51,11.55s-.02,0-.03,0l-14.37-11.43s-.02,0-.03,0l-26.26,25.02c-.16,.15-.05,.42,.17,.42H107.82c.22,0,.33-.27,.17-.42l-26.12-25.14s-.02,0-.03,0Z"/><g><g><path class="cls-1" d="M97.8,91.73H36.89l16.27-15.5,11.61,9.25,1.12,.82h2.8l1.29-.93,11.59-9.23,16.22,15.61Zm-23.56-4.28h12.94l-5.87-5.63-7.07,5.63Zm-26.64,0h12.78l-6.97-5.54-5.81,5.54Z"/><path class="cls-1" d="M97.34,47.16l-30.04,23.9-30.04-23.9h60.08Zm-30.04,15.3l10.76-8.57h-21.52l10.76,8.57Z"/></g><g><polygon class="cls-2" points="37.26 47.16 97.34 47.16 67.3 71.06 37.26 47.16"/><polygon class="cls-2" points="56.54 53.89 78.06 53.89 67.3 62.46 56.54 53.89"/><polygon class="cls-2" points="36.89 91.73 53.16 76.23 64.77 85.47 65.89 86.29 68.7 86.29 69.99 85.36 81.58 76.12 97.8 91.73 36.89 91.73"/><polygon class="cls-2" points="74.24 87.45 81.31 81.82 87.17 87.45 74.24 87.45"/><polygon class="cls-2" points="47.6 87.45 53.41 81.9 60.38 87.45 47.6 87.45"/></g></g><g><path class="cls-1" d="M104.8,58.56l-.25,27.78-15.69-15.1,15.95-12.68Zm-3.84,19.23l.1-11.56-6.65,5.29,6.55,6.27Z"/><g><polygon class="cls-2" points="104.8 58.56 104.55 86.34 88.86 71.25 104.8 58.56"/><polygon class="cls-2" points="94.42 71.52 101.06 66.23 100.96 77.79 94.42 71.52"/></g></g><g><path class="cls-1" d="M29.84,58.56l.25,27.78,15.69-15.1-15.95-12.68Zm3.84,19.23l-.1-11.56,6.65,5.29-6.55,6.27Z"/><g><polygon class="cls-2" points="29.84 58.56 30.09 86.34 45.78 71.25 29.84 58.56"/><polygon class="cls-2" points="40.22 71.52 33.58 66.23 33.68 77.79 40.22 71.52"/></g></g></g><g><circle class="cls-2" cx="67.31" cy="67.31" r="66.81"/><path class="cls-2" d="M127.03,67.3c0,32.99-26.74,59.73-59.72,59.73S7.58,100.29,7.58,67.3,34.32,7.58,67.31,7.58s59.72,26.74,59.72,59.72Z"/><circle class="cls-2" cx="67.31" cy="67.31" r="56.13"/><path class="cls-1" d="M67.31,3.66c35.1,0,63.65,28.55,63.65,63.65s-28.55,63.66-63.65,63.66S3.65,102.41,3.65,67.31,32.2,3.66,67.31,3.66Zm59.72,63.65c0-32.98-26.74-59.72-59.72-59.72S7.58,34.33,7.58,67.31s26.74,59.73,59.73,59.73,59.72-26.74,59.72-59.73Z"/><path class="cls-2" d="M127.03,67.3c0,32.99-26.74,59.73-59.72,59.73S7.58,100.29,7.58,67.3,34.32,7.58,67.31,7.58s59.72,26.74,59.72,59.72Z"/></g></g></g></svg>