<?xml version="1.0" encoding="UTF-8"?><svg id="Layer_2" xmlns="http://www.w3.org/2000/svg" viewBox="0 0 75.66 57.93"><defs><style>.cls-1{fill:#fff;}.cls-2{fill:none;stroke:#fff;stroke-miterlimit:10;}</style></defs><g id="Layer_1-2"><path class="cls-2" d="M75.03,57.43H.63"/><path class="cls-2" d="M.18,44.45H75.48"/><path class="cls-1" d="M75.52,48.01c0,.79-.65,1.44-1.44,1.44H1.58c-.79,0-1.44-.65-1.44-1.44"/><path class="cls-1" d="M74.13,53.01c2.06,0,1.44-1.68,1.44-2.59H.09c0,.91-.62,2.59,1.44,2.59H74.13Z"/><path class="cls-2" d="M75.03,35.45H.63"/><path class="cls-2" d="M.18,22.48H75.48"/><path class="cls-1" d="M75.52,26.04c0,.79-.65,1.44-1.44,1.44H1.58c-.79,0-1.44-.65-1.44-1.44"/><path class="cls-1" d="M74.13,31.04c2.06,0,1.44-1.68,1.44-2.59H.09c0,.91-.62,2.59,1.44,2.59H74.13Z"/><path class="cls-2" d="M75.03,13.47H.63"/><path class="cls-2" d="M.18,.5H75.48"/><path class="cls-1" d="M75.52,4.06c0,.79-.65,1.44-1.44,1.44H1.58c-.79,0-1.44-.65-1.44-1.44"/><path class="cls-1" d="M74.13,9.06c2.06,0,1.44-1.68,1.44-2.59H.09c0,.91-.62,2.59,1.44,2.59H74.13Z"/></g></svg>