<?xml version="1.0" encoding="UTF-8"?><svg id="Layer_2" xmlns="http://www.w3.org/2000/svg" viewBox="0 0 148.09 142.91"><defs><style>.cls-1{fill:none;stroke:#fff;stroke-miterlimit:10;}</style></defs><g id="Layer_1-2"><g><polyline class="cls-1" points="104.91 29.21 119.14 29.21 119.14 43.66"/><polyline class="cls-1" points="101.45 24.92 124.49 24.92 124.49 48.41"/><polyline class="cls-1" points="96.48 20.13 128.96 20.13 128.96 51.57"/><polygon class="cls-1" points=".97 73.61 74.04 .71 147.11 73.61 147.59 75.05 147.59 142.41 74.55 142.41 74.55 113.75 73.54 113.75 73.54 142.41 .5 142.41 .5 75.05 .97 73.61"/><polygon class="cls-1" points="10.65 73.71 74.04 10.46 137.44 73.71 137.94 75.05 137.94 136.36 80.59 136.36 80.59 107.7 67.49 107.7 67.49 136.36 10.15 136.36 10.15 75.05 10.65 73.71"/><polygon class="cls-1" points="88.37 128.58 88.37 99.93 59.71 99.93 59.71 128.58 17.93 128.58 17.93 77.43 74.04 21.44 130.16 77.43 130.16 128.58 88.37 128.58"/></g></g></svg>