<?xml version="1.0" encoding="UTF-8"?><svg id="Layer_2" xmlns="http://www.w3.org/2000/svg" viewBox="0 0 134.61 134.61"><defs><style>.cls-1{fill:#fff;}.cls-2{fill:none;stroke:#fff;stroke-miterlimit:10;}</style></defs><g id="Layer_1-2"><g><circle class="cls-2" cx="67.31" cy="67.31" r="66.81"/><path class="cls-2" d="M127.03,67.3c0,32.99-26.74,59.73-59.72,59.73S7.58,100.29,7.58,67.3,34.32,7.58,67.31,7.58s59.72,26.74,59.72,59.72Z"/><circle class="cls-2" cx="67.31" cy="67.31" r="56.13"/><path class="cls-1" d="M67.31,3.65c35.1,0,63.65,28.55,63.65,63.65s-28.55,63.66-63.65,63.66S3.65,102.4,3.65,67.3,32.2,3.65,67.31,3.65Zm59.72,63.65c0-32.98-26.74-59.72-59.72-59.72S7.58,34.32,7.58,67.3s26.74,59.73,59.73,59.73,59.72-26.74,59.72-59.73Z"/><path class="cls-2" d="M127.03,67.3c0,32.99-26.74,59.73-59.72,59.73S7.58,100.29,7.58,67.3,34.32,7.58,67.31,7.58s59.72,26.74,59.72,59.72Z"/><path class="cls-2" d="M80.11,107.46c-2.86,0-5.8-.52-8.74-1.56-16.59-5.83-34.4-31.07-36.65-51.93-.04-.39-1-9.61,1.48-16.73,2.98-8.56,10.37-14.1,18.84-14.1,2.95,0,5.93,.67,8.85,1.99l3.55,1.61,.57,26.27-7.73,4.57c1.96,5.62,5.5,13.74,10.21,18.64l8.88-4.1,20.75,13.83v10.28l-1.09,1.59c-2.47,3.58-9.23,9.64-18.91,9.64Z"/><g><path class="cls-1" d="M93.93,89.27v5.04s-7.2,10.43-20.51,5.75c-13.3-4.67-30.43-27.2-32.55-46.76-.25-2.34-.52-9.17,1.17-14.02,2.56-7.35,10.19-12.61,19.29-8.5l.4,18.75-8.81,5.21s5.4,20.86,16.55,28.78l9.35-4.32,15.11,10.07Zm-2.88,4.04v-2.5l-12.49-8.32-9.4,4.34-1.36-.96c-11.87-8.43-17.44-29.52-17.67-30.41l-.54-2.1,9.22-5.45-.32-15.14c-1.17-.37-2.33-.55-3.46-.55-4.54,0-8.58,3.14-10.27,8.01-1.5,4.3-1.25,10.67-1.03,12.76,2.04,18.81,18.56,40.11,30.64,44.35,1.98,.7,3.91,1.05,5.74,1.05,5.91,0,9.64-3.59,10.94-5.08Z"/><g><path class="cls-2" d="M78.82,79.2l-9.35,4.32c-11.15-7.92-16.55-28.78-16.55-28.78l8.81-5.21-.4-18.75c-9.1-4.11-16.73,1.15-19.29,8.5-1.69,4.85-1.42,11.68-1.17,14.02,2.12,19.56,19.25,42.09,32.55,46.76,13.31,4.68,20.51-5.75,20.51-5.75v-5.04l-15.11-10.07Z"/><path class="cls-2" d="M80.11,98.39c-1.83,0-3.76-.35-5.74-1.05-12.08-4.24-28.6-25.54-30.64-44.35-.22-2.09-.47-8.46,1.03-12.76,1.69-4.87,5.73-8.01,10.27-8.01,1.13,0,2.29,.18,3.46,.55l.32,15.14-9.22,5.45,.54,2.1c.23,.89,5.8,21.98,17.67,30.41l1.36,.96,9.4-4.34,12.49,8.32v2.5c-1.3,1.49-5.03,5.08-10.94,5.08Z"/></g></g></g></g></svg>